<?xml version="1.0" encoding="UTF-8"?>
<svg width="26px" height="25px" viewBox="0 0 26 25" version="1.1" xmlns="http://www.w3.org/2000/svg" xmlns:xlink="http://www.w3.org/1999/xlink">
    <!-- Generator: Sketch 42 (36781) - http://www.bohemiancoding.com/sketch -->
    <title>phone</title>
    <desc>Created with Sketch.</desc>
    <defs></defs>
    <g id="Page-1" stroke="none" stroke-width="1" fill="none" fill-rule="evenodd">
        <g id="Full-Color" transform="translate(-399.000000, -100.000000)">
            <g id="phone" transform="translate(400.000000, 100.000000)">
                <path d="M16.1387,16.5718 L17.0237,16.0608 C17.7397,15.6478 18.6327,15.7088 19.2867,16.2138 L24.1047,19.9378 C24.5597,20.2898 24.6337,20.9478 24.2667,21.3918 C23.6357,22.1558 22.7337,23.2328 22.3747,23.5918 C21.7967,24.1698 21.0127,24.4998 19.4857,24.4998 C17.9587,24.4998 11.3957,21.3638 7.5987,17.4008 C3.6367,13.6038 0.4997,7.0418 0.4997,5.5138 C0.4997,3.9878 0.8297,3.2028 1.4087,2.6248 C1.7667,2.2658 2.8447,1.3638 3.6077,0.7338 C4.0517,0.3668 4.7097,0.4398 5.0617,0.8958 L8.7867,5.7138 C9.2917,6.3668 9.3517,7.2608 8.9387,7.9768 L8.4267,8.8648 C8.0147,9.5778 8.0697,10.4658 8.5717,11.1188 C9.1537,11.8758 10.0127,12.9218 11.0247,13.9338 C12.0447,14.9538 13.1117,15.8308 13.8817,16.4238 C14.5347,16.9278 15.4237,16.9838 16.1387,16.5718" id="Fill-1" fill="#4CD964"></path>
                <path d="M16.1387,16.5718 L17.0237,16.0608 C17.7397,15.6478 18.6327,15.7088 19.2867,16.2138 L24.1047,19.9378 C24.5597,20.2898 24.6337,20.9478 24.2667,21.3918 C23.6357,22.1558 22.7337,23.2328 22.3747,23.5918 C21.7967,24.1698 21.0127,24.4998 19.4857,24.4998 C17.9587,24.4998 11.3957,21.3638 7.5987,17.4008 C3.6367,13.6038 0.4997,7.0418 0.4997,5.5138 C0.4997,3.9878 0.8297,3.2028 1.4087,2.6248 C1.7667,2.2658 2.8447,1.3638 3.6077,0.7338 C4.0517,0.3668 4.7097,0.4398 5.0617,0.8958 L8.7867,5.7138 C9.2917,6.3668 9.3517,7.2608 8.9387,7.9768 L8.4267,8.8648 C8.0147,9.5778 8.0697,10.4658 8.5717,11.1188 C9.1537,11.8758 10.0127,12.9218 11.0247,13.9338 C12.0447,14.9538 13.1117,15.8308 13.8817,16.4238 C14.5347,16.9278 15.4237,16.9838 16.1387,16.5718 Z" id="Stroke-3" stroke="#000000" stroke-linecap="round" stroke-linejoin="round"></path>
                <path d="M8.86179279,9.11066123 C8.66766898,9.44714251 8.18075575,9.44340395 7.99182158,9.10398151 C7.55699311,8.32280711 7.54982259,7.38449324 7.9935174,6.61509451 L8.5025174,5.73209451 C8.69669818,5.39523473 9.18419135,5.39919144 9.37287871,5.73915874 C9.80690682,6.52116858 9.81510186,7.4591595 9.37179279,8.22666123 L8.86179279,9.11066123 Z" id="Stroke-7" fill="#000000" fill-rule="nonzero" opacity="0.239999995"></path>
                <path d="M23.5426839,19.481195 C23.7148715,19.2740364 24.020221,19.240523 24.2332415,19.4054033 L24.4101463,19.5423296 C25.0887355,20.067304 25.1984105,21.0488022 24.6517132,21.7102016 C23.7439871,22.8092551 23.0482056,23.6259012 22.7287534,23.9453534 C21.9977647,24.6763421 21.0378419,24.9998 19.4862,24.9998 C17.345547,24.9998 10.6052286,21.2600905 7.25328887,17.7618339 C3.73940003,14.395133 0.0002,7.6550742 0.0002,5.5138 C0.0002,4.97538649 0.0416855965,4.50973727 0.124960827,4.09448645 C0.229339577,3.57400323 0.965877742,3.55340745 1.09917913,4.06724444 C1.82021855,6.84663568 4.94130909,12.1618668 7.96023392,15.0548889 C11.1558898,18.3902547 17.6622406,21.9998 19.4862,21.9998 C20.7922205,21.9998 21.4978709,21.7620223 22.0216466,21.2382466 C22.2673538,20.9925394 22.8253002,20.344278 23.5426839,19.481195 Z" id="Stroke-11" fill="#000000" fill-rule="nonzero" opacity="0.239999995"></path>
                <path d="M17.52,1.5 C20.29,2.51 22.49,4.71 23.5,7.48" id="Stroke-14" stroke="#000000" stroke-linecap="round" stroke-linejoin="round"></path>
                <path d="M16.1499,5.2603 C17.8099,5.8603 19.1399,7.1903 19.7399,8.8503" id="Stroke-16" stroke="#000000" stroke-linecap="round" stroke-linejoin="round"></path>
                <path d="M14.7798,9.02 C15.3398,9.22 15.7798,9.66 15.9798,10.22" id="Stroke-18" stroke="#000000" stroke-linecap="round" stroke-linejoin="round"></path>
            </g>
        </g>
    </g>
</svg>